<?xml version="1.0" standalone="no"?>
<!DOCTYPE svg PUBLIC "-//W3C//DTD SVG 20010904//EN"
 "http://www.w3.org/TR/2001/REC-SVG-20010904/DTD/svg10.dtd">
<!--suppress XmlHighlighting -->
<svg version="1.0" xmlns="http://www.w3.org/2000/svg"
 width="243.000000pt" height="71.000000pt" viewBox="0 0 243.000000 71.000000"
 preserveAspectRatio="xMidYMid meet">

<g transform="translate(0.000000,71.000000) scale(0.100000,-0.100000)"
fill="red" stroke="none">
<path d="M10 670 c0 -6 44 -10 111 -10 l112 0 343 -241 344 -241 0 -49 0 -49
-103 0 -103 0 -130 90 c-148 103 -543 373 -561 384 -10 6 -13 -47 -13 -248 l0
-256 465 0 465 0 0 315 0 315 -465 0 c-303 0 -465 -3 -465 -10z"/>
<path d="M1731 637 c-19 -6 -43 -24 -54 -38 -16 -23 -18 -32 -8 -60 18 -55 70
-83 160 -87 56 -3 81 1 96 11 19 15 19 16 2 51 -17 37 -24 40 -67 26 -15 -5
-18 -8 -9 -9 22 -1 33 -32 17 -43 -20 -14 -97 -2 -118 17 -21 19 -26 69 -10
95 10 16 74 18 123 5 17 -5 27 -3 27 3 0 29 -106 49 -159 29z"/>
<path d="M1154 600 c3 -22 15 -65 27 -95 19 -52 22 -55 55 -55 l34 0 -17 26
c-16 25 -16 27 2 40 27 20 31 19 79 -26 31 -29 52 -40 75 -40 17 0 31 4 31 8
0 5 -21 24 -47 42 -27 18 -50 35 -52 37 -3 2 5 13 17 26 12 13 22 29 22 35 0
25 -58 42 -146 42 l-87 0 7 -40z m155 11 c12 -8 12 -12 2 -25 -16 -19 -77 -40
-91 -31 -11 7 -14 48 -3 58 9 10 76 8 92 -2z"/>
<path d="M1461 530 c10 -38 19 -72 19 -75 0 -3 11 -5 25 -5 29 0 30 5 10 40
-17 30 -19 76 -4 86 16 9 -9 24 -43 24 l-27 0 20 -70z"/>
<path d="M1550 594 c0 -4 10 -18 21 -30 13 -14 23 -41 26 -68 5 -43 8 -46 34
-46 21 0 29 5 29 18 -1 23 -34 94 -51 108 -19 15 -59 27 -59 18z"/>
<path d="M1000 263 c0 -21 36 -136 51 -165 8 -15 23 -18 85 -18 98 0 144 18
144 58 0 62 -106 131 -212 140 -63 4 -68 3 -68 -15z m182 -52 c50 -55 30 -101
-42 -101 -27 0 -34 6 -50 43 -10 23 -22 55 -26 71 l-7 29 49 -6 c38 -4 54 -12
76 -36z"/>
<path d="M1284 265 c-7 -17 30 -131 52 -163 10 -14 26 -22 45 -22 l29 0 -16
38 c-9 20 -25 65 -36 100 -17 54 -23 62 -44 62 -14 0 -27 -7 -30 -15z"/>
<path d="M1430 255 c0 -90 146 -202 214 -165 29 15 56 61 56 95 0 43 -37 95
-67 95 -25 0 -25 -1 -10 -18 32 -35 40 -77 22 -111 -22 -44 -57 -41 -106 8
-33 32 -39 45 -39 80 0 40 -1 41 -35 41 -31 0 -35 -3 -35 -25z"/>
<path d="M1710 246 c0 -32 33 -127 53 -153 5 -7 24 -13 43 -13 l33 0 -24 49
c-14 27 -30 72 -37 100 -10 47 -14 51 -40 51 -25 0 -28 -3 -28 -34z"/>
<path d="M1860 257 c0 -28 38 -147 52 -164 9 -12 48 -19 48 -9 0 2 -9 23 -20
47 -19 42 -26 89 -14 89 11 0 70 -44 121 -92 102 -94 129 -46 52 95 -24 45
-36 57 -55 57 l-24 0 25 -40 c23 -36 33 -70 20 -70 -3 0 -42 25 -87 55 -90 61
-118 68 -118 32z"/>
<path d="M2178 255 c-40 -27 -50 -64 -28 -106 17 -32 89 -62 160 -66 77 -6
107 9 97 48 -12 42 -22 51 -51 43 -21 -5 -24 -9 -15 -20 21 -25 3 -44 -41 -44
-75 0 -128 81 -82 123 21 19 92 23 109 6 7 -7 17 -8 28 -2 28 16 -8 35 -77 40
-56 4 -67 1 -100 -22z"/>
</g>
</svg>
